<?xml version="1.0" encoding="UTF-8" standalone="no"?>
<!-- Uploaded to: SVG Repo, www.svgrepo.com, Generator: SVG Repo Mixer Tools -->

<svg
   fill="#000000"
   width="800"
   height="800"
   viewBox="0 0 24 24"
   version="1.1"
   id="svg3"
   sodipodi:docname="repo-symbol.svg"
   inkscape:export-filename="repository-symbol.svg"
   inkscape:export-xdpi="96"
   inkscape:export-ydpi="96"
   xmlns:inkscape="http://www.inkscape.org/namespaces/inkscape"
   xmlns:sodipodi="http://sodipodi.sourceforge.net/DTD/sodipodi-0.dtd"
   xmlns="http://www.w3.org/2000/svg"
   xmlns:svg="http://www.w3.org/2000/svg">
  <defs
     id="defs3" />
  <sodipodi:namedview
     id="namedview3"
     pagecolor="#ffffff"
     bordercolor="#000000"
     borderopacity="0.25"
     inkscape:showpageshadow="2"
     inkscape:pageopacity="0.0"
     inkscape:pagecheckerboard="0"
     inkscape:deskcolor="#d1d1d1">
    <inkscape:page
       x="0"
       y="0"
       width="24"
       height="24"
       id="page2"
       margin="0"
       bleed="0" />
  </sodipodi:namedview>
  <path
     fill-rule="evenodd"
     d="m 5.75,21 a 1.75,1.75 0 1 1 0,-3.5 1.75,1.75 0 0 1 0,3.5 z M 2.5,19.25 a 3.25,3.25 0 1 0 6.5,0 3.25,3.25 0 0 0 -6.5,0 z M 5.75,6.5 a 1.75,1.75 0 1 1 0,-3.5 1.75,1.75 0 0 1 0,3.5 z M 2.5,4.75 a 3.25,3.25 0 1 0 6.5,0 3.25,3.25 0 0 0 -6.5,0 z M 18.25,6.5 a 1.75,1.75 0 1 1 0,-3.5 1.75,1.75 0 0 1 0,3.5 z M 15,4.75 a 3.25,3.25 0 1 0 6.5,0 3.25,3.25 0 0 0 -6.5,0 z"
     id="path1" />
  <path
     fill-rule="evenodd"
     d="M 5.75,16.75 A 0.75,0.75 0 0 0 6.5,16 V 8 A 0.75,0.75 0 0 0 5,8 v 8 c 0,0.414 0.336,0.75 0.75,0.75 z"
     id="path2" />
  <path
     fill-rule="evenodd"
     d="m 17.5,8.75 v -1 H 19 v 1 a 3.75,3.75 0 0 1 -3.75,3.75 h -7 A 1.75,1.75 0 0 0 6.5,14.25 H 5 A 3.25,3.25 0 0 1 8.25,11 h 7 A 2.25,2.25 0 0 0 17.5,8.75 Z"
     id="path3" />
</svg>
